# xmcd CD database file
#
# Track frame offsets:
#	150
#	19303
#	42966
#	86276
#	106917
#	129791
#	139308
#	161660
#	187594
#	223703
#
# Disc length: 3327 seconds
#
# Revision: 0
# Processed by: cddbd v1.5.2PL0 Copyright (c) Steve Scherf et al.
# Submitted via: CDex 1.70
#
DISCID=7b0cfd0a
DTITLE=Lois Deloatch - Closure
DYEAR=2005
DGENRE=Jazz
TTITLE0=Reflection
TTITLE1=Solitude
TTITLE2=Perpetual Motion
TTITLE3=A Good Cry
TTITLE4=Kamissie
TTITLE5=Tenderly (intro)
TTITLE6=Tenderly
TTITLE7=Closure
TTITLE8=Equinox/All Blues
TTITLE9=Trigger
EXTD=YEAR: 2005
EXTT0=
EXTT1=
EXTT2=
EXTT3=
EXTT4=
EXTT5=
EXTT6=
EXTT7=
EXTT8=
EXTT9=
PLAYORDER=
